<?xml version="1.0" encoding="UTF-8"?>
<svg width="484px" height="484px" viewBox="0 0 484 484" version="1.1" xmlns="http://www.w3.org/2000/svg" xmlns:xlink="http://www.w3.org/1999/xlink">
    <title>Moss 2</title>
    <g id="Page-1" stroke="none" stroke-width="1" fill="none" fill-rule="evenodd" opacity="0.929408482">
        <g id="Moss" transform="translate(59, 55)" fill="#f5efe1">
            <g id="combinedA" transform="translate(47, 70)">
                <path d="M109.719894,8.43993325 C160.719944,-7.64079749 182.11338,-0.742386084 173.900201,29.1351675 C140.107393,116.501586 128.394136,162.119177 138.760431,165.98794 C149.126727,169.856703 160.839983,169.856703 173.900201,165.98794 C185.339477,191.57129 185.339477,205.558648 173.900201,207.950016 C148.403967,213.279976 125.280709,213.279976 109.719894,207.950016 C92.7707969,202.144536 81.5395846,192.861082 81.5395846,174.285718 C81.5395846,105.973743 138.760431,67.2731228 138.760431,37.364807 C138.760431,7.45649112 107.768705,25.029598 90.1215871,35.8390758 C72.4744693,46.6485537 33.1098885,84.9331833 40.5624007,125.623337 C43.885379,143.766548 57.2631636,160.401211 52.7684481,174.285718 C47.1827721,191.540283 21.8209724,203.231543 7.0147238,192.861082 C-19.7059061,174.145655 33.2198188,32.5610294 109.719894,8.43993325 Z M255.31991,106.960636 C243.551367,149.027121 232.707686,185.253326 219.389,192.355562 C206.008426,199.490799 219.49479,177.845693 236.535497,120.585734 C245.655252,89.9416563 232.49569,88.4009855 212.428575,93.9632568 C192.36146,99.5255281 214.454846,47.5965393 231.513261,56.2762614 C248.571662,64.9560098 263.18125,78.8603903 255.31991,106.960636 Z" id="Combined-Shape-Copy"></path>
            </g>
        </g>
    </g>
</svg>